<?xml version="1.0" encoding="utf-8"?>
<!-- Generator: Adobe Illustrator 18.1.1, SVG Export Plug-In . SVG Version: 6.00 Build 0)  -->
<svg version="1.1" id="Layer_1" xmlns="http://www.w3.org/2000/svg" xmlns:xlink="http://www.w3.org/1999/xlink" x="0px" y="0px"
	 viewBox="80.6 528.4 688.3 141.2" enable-background="new 80.6 528.4 688.3 141.2" xml:space="preserve">
<g>
	<path fill="#202020" d="M354.8,642.6v13v7.9H351h-0.5v2h0.5h10.4h0.3v-2h-0.5h-4.3v-7.6v-14l17.8,23.1c0.3,0.3,0.3,0.5,0.5,0.8h3.1
		c0-0.3,0-0.5,0-1v-21.6v-4.8h4.1v-2H382h-10.2h-0.3v2h0.5h3.8v5.1v10.9l-14-18.1h-2.3h-2.8h-6.1h0.3v2h0.3h3.6V642.6L354.8,642.6z"
		/>
	<path fill="#202020" d="M345.9,663.2h0.8v2h-1h-13.2h-1.5v-2h1.3h1.3h1.5v-2.3v-1.3v-0.8v-16.8c0-0.5,0-0.8,0-1v-1.3v-2h-2h-1.8
		h-0.5v-2h0.3h15h0.5v2h-0.5h-2h-1.5v2.3v1c0,0.5,0,0.8,0,1.3v16.5v4.3H345.9z"/>
	<polygon fill="#202020" points="327.1,657.6 328.6,657.6 327.1,665.2 303.9,665.2 303.9,663.2 308,663.2 308,659.9 308,658.9 
		308,642.3 308,637.8 305.5,637.8 303.9,637.8 303.9,635.7 304.5,635.7 319.2,635.7 319.7,635.7 319.7,637.8 318.4,637.8 
		316.7,637.8 315.4,637.8 315.4,641.1 315.6,642.6 315.6,658.4 315.6,663.2 323,663.2 	"/>
	<path fill="#202020" d="M285.4,653h-6.1H279l3.6-9.7l3.6,9.7H285.4z M300.4,663.2h-2.3L287.4,637c0-0.3-0.3-0.8-0.5-1.3h-3.3
		c-0.3,0.8-0.5,1.5-0.8,1.5l-5.3,13l-2.5,6.4c0,0-2,5.3-2.5,6.6h-3.1v2h0.8h10.2h0.5v-2h-5.6c0.8-2,2-6.4,2.3-6.6
		c0-0.3,0.3-0.8,0.5-1.5h1.8h5.6l0,0h1.3l3.1,8.1h-2.5h-1v2h0.8h13.2h1v-2H300.4z"/>
	<polygon fill="#202020" points="260.2,665.2 249,637.8 246.7,637.8 246,637.8 246,635.7 246.7,635.7 260.5,635.7 261.2,635.7 
		261.2,637.8 257.1,637.8 264.3,655.8 271.4,637.8 267.6,637.8 266.8,637.8 266.8,635.7 267.8,635.7 276.5,635.7 277.2,635.7 
		277.2,637.8 276.5,637.8 273.7,637.8 262.7,665.2 	"/>
	<path fill="#202020" d="M235.8,653h-6.1h-0.3l3.6-9.7l3.6,9.7H235.8z M251,663.2h-2.3l-10.7-26.5c0-0.3-0.3-0.8-0.5-1.3h-3.3
		c-0.3,0.8-0.5,1.5-0.8,1.5l-5.3,13l-2.5,6.4c0,0-2,5.3-2.5,6.6H220v2h0.8h10.2h0.5v-2h-5.6c0.8-2,2-6.4,2.3-6.6
		c0-0.3,0.3-0.8,0.5-1.5h1.8h5.6l0,0h1.3l3.1,8.1h-2.5h-1v2h0.8h13.2h1v-2H251V663.2z"/>
	<polygon fill="#202020" points="217,657.6 218.2,657.6 217,665.2 193.8,665.2 193.8,663.2 197.9,663.2 197.9,659.9 197.9,658.9 
		197.9,642.3 197.9,637.8 195.3,637.8 193.8,637.8 193.8,635.7 194.1,635.7 209.1,635.7 209.3,635.7 209.3,637.8 208.3,637.8 
		206.5,637.8 205.3,637.8 205.3,641.1 205.3,642.6 205.3,658.4 205.3,663.2 212.9,663.2 	"/>
	<polygon fill="#202020" points="181.6,655.6 176.3,650 181.6,644.4 186.9,650 	"/>
	<path fill="#202020" d="M165.3,663.2c-0.3,0-0.3,0.3-0.5,0.3c-2.5,1.5-5.8,2-8.6,2c-4.1,0-8.6-1-12-3.6c-3.3-2.8-5.6-7.1-5.6-11.7
		s2.3-8.9,5.8-11.7c3.6-2.5,8.4-3.8,12.7-3.8c2,0,4.6,0.3,6.9,1c1,0.3,1.3,0.5,1.3,1.3v0.3l1,5.6h-1.5l-2.3-3.3v-0.3
		c-1-1.5-2.5-2.8-5.6-2.8s-5.6,1.8-7.4,4.3c-1.8,2.5-2.5,6.1-2.5,9.2c0,3.1,0.8,6.4,2.3,8.9c1.8,2.8,4.3,4.6,7.6,4.6
		c1.8,0,3.3-0.8,4.8-1.8c0.3-0.3,0.8-0.8,1-1v-0.3l2.3-3.3h1.5L165.3,663.2L165.3,663.2z"/>
	<path fill="#202020" d="M108.6,642.6v13v7.9h-3.8h-0.5v2h0.5h10.4h0.3v-2H115h-4.3v-7.6v-14l17.8,23.1c0.3,0.3,0.3,0.5,0.5,0.8h3.1
		v-1.5v-21.1v-4.8h4.1v-2h-0.3h-10.2h-0.3v2h0.5h3.8v5.1v10.9l-14-18.1h-2.3h-2.8h-6.1h-0.3v2h0.3h3.6v4.3l0,0H108.6z"/>
	<path fill="#202020" d="M96.7,640.5l1.3,2.8h1.5v-4.1v-0.8c0-1,0.3-1.5-0.8-2c-1.5-0.8-4.3-1.3-5.8-1.3c-5.1,0-11.7,3.3-11.7,9.4
		c0,4.6,4.3,6.9,7.9,8.4c2.8,1.3,6.6,2.3,6.6,6.1c0,3.3-3.3,5.1-6.1,5.1c-1.8,0-3.3-0.5-4.6-1.8c-0.5-0.5-1-1.3-1.3-1.8l0,0
		l-1.5-4.3h-1.5v4.8v0.3c0,1.5-0.3,2.3,1.3,2.8c2,1,5.3,1.5,7.6,1.5c3.1,0,5.8-0.8,8.4-2.8c2-1.8,3.6-4.6,3.6-7.6
		c0-5.3-3.6-7.9-8.1-9.4l-2.3-0.8c-2-0.8-4.1-1.5-4.1-4.1c0-2.8,2.8-4.3,5.1-4.3C94.4,637,95.6,638.5,96.7,640.5L96.7,640.5z"/>
	<polygon fill="#202020" points="136.6,567 156.4,587.9 176.3,567 156.4,546.4 	"/>
	<path fill="#202020" d="M160.5,598.6c3.1,2.3,6.6,4.3,10.4,5.6c13.2-7.9,25.9-24.7,25.9-36.6c0-12.2-13.2-29.2-26.7-37.1
		c-3.6,1.3-7.1,3.3-10.2,5.6c9.4,4.1,28,23.9,28,31.3C188.2,574.4,170.2,594.3,160.5,598.6"/>
	<path fill="#202020" d="M185.4,528.4c19.3,1.5,34.3,18.3,34.3,38.7c0,20.1-14.5,36.6-33.3,38.7c11.4-9.7,19.3-24.2,19.3-38.2
		C205.8,552.8,197.1,538,185.4,528.4"/>
	<polygon fill="#202020" points="470.8,648.2 472.8,648.2 476.9,656.8 476.9,656.8 480.7,648.2 482.8,648.2 482.8,665.2 
		481.2,665.2 481.2,650.5 481.2,650.5 477.4,659.1 476.1,659.1 472.3,650.7 472.3,650.7 472.3,665.2 470.8,665.2 	"/>
	<path fill="#202020" d="M492.4,658.1v-1.3c0-1.5-0.5-2.8-2.5-2.8c-1.8,0-2.5,1.5-2.5,2.8v1.3H492.4z M485.8,660.9v-3.6
		c0-3.1,1.8-4.6,4.3-4.6c2.5,0,3.8,1.5,3.8,4.3v2.3h-6.6v1.8c0,2,1,3.1,2.8,3.1c1.3,0,2.3-0.5,2.8-0.8l0.5,1c-1,0.8-2.3,1.3-3.6,1.3
		C487.6,665.5,485.8,663.9,485.8,660.9"/>
	<path fill="#202020" d="M496.7,653h1.5v2l0,0c0.8-1.5,2-2.3,3.6-2.3c1.5,0,2.5,1,2.8,2.3l0,0c0.8-1.5,2-2.3,3.6-2.3
		c1.8,0,2.8,1.3,2.8,3.1v9.4h-1.5v-8.9c0-1.5-0.8-2.3-2-2.3c-1.3,0-2.8,1.3-2.8,3.1v7.9h-1.5v-8.9c0-1.5-0.8-2-2-2s-2.8,1.5-2.8,3.3
		v7.9h-1.5L496.7,653L496.7,653z"/>
	<path fill="#202020" d="M521.2,661.7v-5.3c0-1.3-0.8-2.3-2.3-2.3c-1.3,0-2.8,1.5-2.8,3.6v3.1c0,2,1.3,3.6,2.8,3.6
		S521.2,663.2,521.2,661.7 M516.1,663.2L516.1,663.2v2h-1.5v-17h1.5v6.9l0,0c0.8-1.5,2-2.3,3.3-2.3c2.3,0,3.3,1.8,3.3,3.6v5.1
		c0,2.5-1.5,3.8-3.6,3.8C518.1,665.5,516.6,664.5,516.1,663.2"/>
	<path fill="#202020" d="M531.8,658.1v-1.3c0-1.5-0.5-2.8-2.5-2.8c-1.8,0-2.5,1.5-2.5,2.8v1.3H531.8z M525.2,660.9v-3.6
		c0-3.1,1.8-4.6,4.3-4.6c2.5,0,3.8,1.5,3.8,4.3v2.3h-6.6v1.8c0,2,1,3.1,2.8,3.1c1.3,0,2.3-0.5,2.8-0.8l0.5,1c-1,0.8-2.3,1.3-3.6,1.3
		C527,665.5,525.2,663.9,525.2,660.9"/>
	<path fill="#202020" d="M536.2,653h1.5v2l0,0c0.8-1.8,2-2.3,3.3-2.3c0.3,0,0.5,0,0.8,0v1.5c-0.5,0-0.8,0-1,0c-1.5,0-3.1,1-3.1,3.1
		v7.6h-1.5V653L536.2,653z"/>
	<path fill="#202020" d="M554.5,660.9v-4.1c0-1.5-0.8-3.1-2.5-3.1c-1.8,0-2.5,1.3-2.5,3.1v4.1c0,1.8,0.8,3.1,2.5,3.1
		C553.7,663.9,554.5,662.7,554.5,660.9 M547.6,661.2v-3.8c0-2.8,1.8-4.3,4.1-4.3c2.5,0,4.1,1.5,4.1,4.3v3.8c0,3.1-1.8,4.3-4.1,4.3
		S547.6,663.9,547.6,661.2"/>
	<path fill="#202020" d="M559.8,654.3H558V653h1.8v-2c0-2,1-3.1,2.8-3.1c0.5,0,1,0,1.3,0.3v1.3c-0.3,0-0.8,0-1,0
		c-0.8,0-1.5,0.5-1.5,1.8v2h2.3v1.3h-2.3v10.7h-1.5V654.3z"/>
	<path fill="#202020" d="M571,662.9v-8.6h-1.8V653h1.8v-3.6h1.5v3.6h3.1v1.3h-3.1v8.1c0,1,0.5,1.5,1.5,1.5c0.5,0,1,0,1.3-0.3v1.3
		c-0.8,0.3-1.3,0.3-2,0.3C572.5,665.2,571,665,571,662.9"/>
	<path fill="#202020" d="M578.1,648.2h1.5v6.9l0,0c0.8-1.5,2-2.3,3.6-2.3c1.8,0,2.8,1.3,2.8,3.1v9.4h-1.5v-8.9c0-1.5-0.8-2.3-2-2.3
		s-2.8,1.5-2.8,3.3v7.6h-1.5V648.2L578.1,648.2z"/>
	<path fill="#202020" d="M595.7,658.1v-1.3c0-1.5-0.5-2.8-2.5-2.8c-1.8,0-2.5,1.5-2.5,2.8v1.3H595.7z M589.1,660.9v-3.6
		c0-3.1,1.8-4.6,4.3-4.6s3.8,1.5,3.8,4.3v2.3h-6.6v1.8c0,2,1,3.1,2.8,3.1c1.3,0,2.3-0.5,2.8-0.8l0.5,1c-1,0.8-2.3,1.3-3.6,1.3
		C590.8,665.5,589.1,663.9,589.1,660.9"/>
	<path fill="#202020" d="M603.1,663.2l1-1.3c1.3,1.3,2.3,1.8,4.3,1.8s3.1-1.3,3.1-2.8c0-1.8-1.3-2.8-2.5-3.3l-2-1
		c-2-1-3.1-2.3-3.1-4.3c0-2.5,1.8-4.3,4.6-4.3c1.8,0,3.3,0.5,4.6,2l-1,1c-1-1-2-1.5-3.6-1.5c-1.5,0-2.8,1-2.8,2.8
		c0,1.3,0.8,2.3,2.3,2.8l1.8,1c2,1,3.3,2.5,3.3,4.6c0,2.8-2,4.8-5.1,4.8C605.9,665.5,604.3,664.7,603.1,663.2"/>
	<polygon fill="#202020" points="616,648.2 617.8,648.2 624.7,661.7 624.9,661.7 624.9,648.2 626.5,648.2 626.5,665.2 624.9,665.2 
		617.6,651 617.6,651 617.6,665.2 616,665.2 	"/>
	<path fill="#202020" d="M629.5,660.4V653c0-3.1,2-5.1,5.3-5.1c2.8,0,4.8,1.8,4.8,4.3v1.3h-1.5v-1c0-1.8-1-3.3-3.3-3.3
		s-3.6,1.5-3.6,3.6v7.1c0,2.5,1.5,3.8,3.6,3.8c2,0,3.3-1.3,3.3-3.1v-1h1.5v1.3c0,2.5-2,4.3-4.8,4.3
		C631.8,665.5,629.5,663.7,629.5,660.4"/>
	<rect x="641.7" y="657.3" fill="#202020" width="4.8" height="1.3"/>
	<polygon fill="#202020" points="649.1,648.2 650.9,648.2 650.9,663.7 658,663.7 658,665.2 649.1,665.2 	"/>
	<path fill="#202020" d="M666.4,661.2v-1.8h-2c-1.3,0-2.8,0.5-2.8,2.5c0,1.5,1,2.3,2,2.3C665.1,663.9,666.4,662.9,666.4,661.2
		 M659.8,661.9c0-2.8,2.3-3.8,4.3-3.8h2.3v-2c0-1.5-1-2-2.3-2s-2.3,0.5-2.3,2v0.8h-1.5v-0.8c0-2,1.8-3.1,4.1-3.1c2,0,3.8,1,3.8,3.3
		v6.1c0,1,0,2.5,0,3.1h-1.5v-2l0,0c-0.8,1.8-2.3,2.3-3.3,2.3C661.3,665.5,659.8,664.2,659.8,661.9"/>
	<polygon fill="#202020" points="670,653 671.5,653 674,662.9 674.3,662.9 676.8,653 678.3,653 674.8,665.2 673.3,665.2 	"/>
	<path fill="#202020" d="M686.2,661.2v-1.8h-2c-1.3,0-2.8,0.5-2.8,2.5c0,1.5,1,2.3,2,2.3C685,663.9,686.2,662.9,686.2,661.2
		 M679.6,661.9c0-2.8,2.3-3.8,4.3-3.8h2.3v-2c0-1.5-1-2-2.3-2c-1.3,0-2.3,0.5-2.3,2v0.8h-1.5v-0.8c0-2,1.8-3.1,4.1-3.1
		c2,0,3.8,1,3.8,3.3v6.1c0,1,0,2.5,0,3.1h-1.5v-2l0,0c-0.8,1.8-2.3,2.3-3.3,2.3C681.1,665.5,679.6,664.2,679.6,661.9"/>
	<path fill="#202020" d="M691.1,662.7v-14.5h1.5v14.2c0,0.8,0.3,1.3,1.3,1.3c0.3,0,0.8,0,1,0v1.3c-0.5,0.3-1,0.3-1.5,0.3
		C691.8,665.2,691.1,664.5,691.1,662.7"/>
	<path fill="#202020" d="M697.2,665.2h1.5V653h-1.5V665.2z M697.2,651h1.5v-2.5h-1.5V651z"/>
	<path fill="#202020" d="M702.3,653h1.5v2l0,0c0.8-1.5,2-2.3,3.6-2.3c1.8,0,2.8,1.3,2.8,3.1v9.4h-1.5v-8.9c0-1.5-0.8-2.3-2-2.3
		c-1.3,0-2.8,1.5-2.8,3.3v7.9h-1.5V653z"/>
	<path fill="#202020" d="M717.3,660.4V653c0-3.1,2.3-5.1,5.3-5.1c3.1,0,5.1,1.8,5.1,4.3v1.3h-1.5v-1c0-1.8-1.3-3.1-3.6-3.1
		c-2.3,0-3.6,1.5-3.6,3.8v7.1c0,2.3,1.3,3.6,3.6,3.6c2.5,0,3.3-1.5,3.3-3.3v-3.1h-3.3v-1.3h5.1v4.6c0,2.5-2,4.6-5.1,4.6
		C719.5,665.5,717.3,663.7,717.3,660.4"/>
	<path fill="#202020" d="M730.7,653h1.5v2l0,0c0.8-1.8,2-2.3,3.3-2.3c0.3,0,0.5,0,0.8,0v1.5c-0.5,0-0.8,0-1,0c-1.5,0-3.1,1-3.1,3.1
		v7.6h-1.5L730.7,653L730.7,653z"/>
	<path fill="#202020" d="M745,660.9v-4.1c0-1.5-0.8-3.1-2.5-3.1s-2.5,1.3-2.5,3.1v4.1c0,1.8,0.8,3.1,2.5,3.1S745,662.7,745,660.9
		 M738.1,661.2v-3.8c0-2.8,1.8-4.3,4.1-4.3c2.5,0,4.1,1.5,4.1,4.3v3.8c0,3.1-1.8,4.3-4.1,4.3C739.9,665.5,738.1,663.9,738.1,661.2"
		/>
	<path fill="#202020" d="M749.3,662.2v-9.4h1.5v8.9c0,1.5,0.8,2.3,2,2.3c1.5,0,2.8-1.5,2.8-3.3V653h1.5v12.2h-1.5v-2l0,0
		c-0.5,1.5-2,2.3-3.6,2.3C750.6,665.5,749.3,664.2,749.3,662.2"/>
	<path fill="#202020" d="M767.4,661.7v-5.1c0-1.3-0.8-2.3-2.3-2.3s-2.8,1.5-2.8,3.6v2.8c0,2,1.3,3.6,2.8,3.6
		C766.3,664.2,767.4,663.2,767.4,661.7 M760.8,653h1.5v2l0,0c0.8-1.5,2-2.3,3.3-2.3c2,0,3.3,1.5,3.3,3.6v5.1c0,2.5-1.3,4.1-3.6,4.1
		c-1.3,0-2.5-0.8-3.1-2l0,0v6.1h-1.5L760.8,653L760.8,653z"/>
	<polygon fill="#202020" points="493.7,552.3 470.8,615.9 483.5,615.9 501.1,565.5 519.1,615.9 532.9,615.9 509.2,552.3 	"/>
	<polygon fill="#202020" points="545.1,562.5 528,562.5 524.5,552.3 575.1,552.3 575.1,562.5 557.3,562.5 557.3,615.9 545.1,615.9 	
		"/>
	<polygon fill="#202020" points="594.9,586.1 594.9,615.9 582.5,615.9 582.5,552.3 594.9,552.3 594.9,579.5 617.3,552.3 
		632.1,552.3 606.9,582 633.1,615.9 617.6,615.9 	"/>
	<rect x="639.9" y="552.3" fill="#202020" width="12.2" height="63.3"/>
	<polygon fill="#202020" points="705.6,598.8 705.6,552.3 717,552.3 717,615.9 702,615.9 677.6,569.3 677.6,615.9 666.4,615.9 
		666.4,552.3 681.4,552.3 	"/>
	<path fill="#202020" d="M764.6,564.8c-3.8-2-8.1-3.6-13.5-3.6c-4.3,0-10.4,2-10.4,8.1c0,6.1,7.1,7.6,13.7,10.4
		c8.1,3.3,14.2,7.6,14.2,18.1c0,13.2-10.4,20.1-23.9,20.1c-6.9,0-13-1.5-17.3-4.1l1.5-11.4c4.1,2.8,9.9,4.8,15.8,4.8
		c6.4,0,10.9-2.5,10.9-8.4s-6.6-7.9-13.2-10.7c-7.1-3.1-14.5-6.6-14.5-17.5c0-13.2,11.4-19.6,22.4-19.6c6.4,0,11.2,1.3,15.3,3.3
		L764.6,564.8z"/>
</g>
</svg>
