<?xml version="1.0" encoding="utf-8"?>
<!-- Generator: Adobe Illustrator 18.1.1, SVG Export Plug-In . SVG Version: 6.00 Build 0)  -->
<svg version="1.1" id="Layer_1" xmlns="http://www.w3.org/2000/svg" xmlns:xlink="http://www.w3.org/1999/xlink" x="0px" y="0px"
	 viewBox="-332 565.5 176 60" enable-background="new -332 565.5 176 60" xml:space="preserve">
<title>logo copy</title>
<desc>Created with Sketch.</desc>
<g id="Symbols">
	<g id="logo-copy">
		<rect id="Rectangle-Copy-8" x="-332" y="565.5" fill="#FFFFFF" width="176" height="60"/>
		<g enable-background="new    ">
			<path d="M-313.3,605.1c-0.9,0-1.6-0.1-2.5-0.6l-0.1,0.4h-3v-16.1l3.2-0.3v6h0.2c1.1-0.8,1.9-1,2.7-1c2.4,0,4,1.4,4,5.7
				C-308.9,603.4-311,605.1-313.3,605.1z M-313.9,596.2c-0.5,0-1,0.2-1.9,0.7v5.4c0.7,0.3,1.2,0.3,1.6,0.3c1.2,0,1.8-0.5,1.8-3.4
				C-312.3,596.8-312.9,596.2-313.9,596.2z"/>
			<path d="M-300.1,604.9V604h-0.2c-1.7,0.9-2.7,1.1-3.6,1.1c-1.9,0-2.7-1.2-2.7-3v-8.4h3.2v7.8c0,0.5,0.2,0.7,0.8,0.7
				c0.7,0,1.6-0.1,2.4-0.6v-7.9h3.2v11.2H-300.1z"/>
			<path d="M-292.4,592.4c-1.1,0-1.9-0.6-1.9-1.8s0.7-1.8,1.9-1.8c1.1,0,1.9,0.5,1.9,1.8C-290.5,591.7-291.2,592.4-292.4,592.4z
				 M-294,604.9v-11.2h3.2v11.2H-294z"/>
			<path d="M-287.7,604.9v-16.1l3.2-0.3v16.4H-287.7z"/>
			<path d="M-275.1,604.9v-0.8h-0.2c-1.3,0.8-1.9,1-2.9,1c-2.4,0-4-1.5-4-5.7c0-4.2,2.1-5.9,4.4-5.9c0.8,0,1.5,0.1,2.4,0.5v-5.2
				l3.2-0.3v16.4H-275.1z M-275.3,596.3c-0.6-0.1-1.2-0.2-1.6-0.2c-1.1,0-1.8,0.5-1.8,3.4c0,2.6,0.7,3,1.6,3c0.5,0,1-0.1,1.9-0.7
				V596.3z"/>
			<path d="M-267.4,592.4c-1.1,0-1.9-0.6-1.9-1.8s0.7-1.8,1.9-1.8c1.1,0,1.9,0.5,1.9,1.8C-265.5,591.7-266.2,592.4-267.4,592.4z
				 M-269,604.9v-11.2h3.2v11.2H-269z"/>
			<path d="M-256.3,604.9v-7.8c0-0.5-0.2-0.7-0.8-0.7c-0.7,0-1.7,0.2-2.4,0.6v7.9h-3.2v-11.2h3.2v0.9h0.2c1.6-0.9,2.6-1.1,3.5-1.1
				c1.7,0,2.7,0.8,2.7,3v8.5H-256.3z"/>
			<path d="M-246.3,609.8c-3,0-4.3-1-4.3-2.6c0-0.8,0.3-1.7,1.2-2.3v-0.2c-0.5-0.2-0.9-0.4-0.9-1c0-0.4,0.3-1.6,0.8-3.5
				c-0.7-0.6-1.2-1.4-1.2-2.8c0-2.4,1.6-3.8,4.5-3.8c0.6,0,1.3,0.1,1.8,0.2h3.9l-0.3,2.2h-1.4v0.2c0.4,0.4,0.5,1,0.5,1.5
				c0,2.5-1.7,3.4-4.5,3.4c-0.4,0-0.9,0-1.2-0.1c-0.1,0.5-0.2,0.9-0.2,1c0,0.3,0,0.3,0.4,0.3l3.5,0.1c1.9,0.1,3.1,0.7,3.1,3.1
				C-240.6,607.9-242.6,609.8-246.3,609.8z M-244.1,605.1l-3.4-0.1c-0.2,0.4-0.3,0.8-0.3,1.2c0,0.8,0.5,1.1,1.9,1.1
				c1.7,0,2.5-0.4,2.5-1.4C-243.4,605.3-243.6,605.2-244.1,605.1z M-246.2,595.7c-1.1,0-1.5,0.4-1.5,1.6c0,1.3,0.5,1.6,1.5,1.6
				c1.1,0,1.5-0.4,1.5-1.6C-244.7,596-245.2,595.7-246.2,595.7z"/>
			<path d="M-227.8,604.9v-0.8h-0.2c-1.3,0.8-1.9,1-2.9,1c-2.5,0-4-1.5-4-5.7c0-4.2,2.1-5.9,4.4-5.9c0.8,0,1.5,0.1,2.5,0.5v-5.2
				l3.2-0.3v16.4H-227.8z M-228,596.3c-0.6-0.1-1.2-0.2-1.6-0.2c-1.1,0-1.8,0.5-1.8,3.4c0,2.6,0.7,3,1.6,3c0.5,0,1-0.1,1.9-0.7
				V596.3z"/>
			<path d="M-217.2,605.1c-3.5,0-5.2-1.9-5.2-5.6c0-4.2,1.9-6,5-6c2.8,0,4.4,1.6,4.4,4.6c0,0.5,0,1.2-0.1,2c-0.9,0-3.4,0.1-6,0.2
				c0,1.6,0.5,2.1,1.9,2.1c0.4,0,1.2-0.1,3.4-0.7l0.5,2.7C-215.1,604.9-216.3,605.1-217.2,605.1z M-216.1,597.5
				c0-1.3-0.5-1.7-1.4-1.7c-1,0-1.5,0.5-1.5,2.5c0.6,0,1.9,0,2.9-0.1C-216.1,597.9-216.1,597.7-216.1,597.5z"/>
			<path d="M-207.4,605.1c-1,0-1.8-0.1-3.9-0.7l0.6-2.6c2.5,0.7,3.1,0.8,3.7,0.8c0.6,0,1-0.2,1-0.8c0-0.5-0.2-0.7-1.2-1.1l-1.7-0.6
				c-1.4-0.5-2.2-1.3-2.2-2.8c0-2.5,2-3.8,4.4-3.8c0.8,0,1.7,0.1,3.4,0.4l-0.6,2.6c-2-0.4-2.5-0.5-3.1-0.5c-0.7,0-1,0.2-1,0.9
				c0,0.4,0.1,0.6,1.1,0.9l1.7,0.6c1.3,0.5,2.2,1.3,2.2,3C-203.1,603.9-204.8,605.1-207.4,605.1z"/>
			<path d="M-199.2,592.4c-1.1,0-1.9-0.6-1.9-1.8s0.7-1.8,1.9-1.8c1.1,0,1.9,0.5,1.9,1.8C-197.3,591.7-198,592.4-199.2,592.4z
				 M-200.8,604.9v-11.2h3.2v11.2H-200.8z"/>
			<path d="M-190.7,609.8c-3,0-4.3-1-4.3-2.6c0-0.8,0.3-1.7,1.2-2.3v-0.2c-0.5-0.2-0.9-0.4-0.9-1c0-0.4,0.3-1.6,0.8-3.5
				c-0.7-0.6-1.2-1.4-1.2-2.8c0-2.4,1.6-3.8,4.5-3.8c0.6,0,1.3,0.1,1.8,0.2h3.9l-0.3,2.2h-1.4v0.2c0.4,0.4,0.5,1,0.5,1.5
				c0,2.5-1.7,3.4-4.5,3.4c-0.4,0-0.9,0-1.2-0.1c-0.1,0.5-0.2,0.9-0.2,1c0,0.3,0,0.3,0.4,0.3l3.5,0.1c1.9,0.1,3.1,0.7,3.1,3.1
				C-185,607.9-187,609.8-190.7,609.8z M-188.5,605.1l-3.4-0.1c-0.2,0.4-0.3,0.8-0.3,1.2c0,0.8,0.5,1.1,1.9,1.1
				c1.7,0,2.5-0.4,2.5-1.4C-187.8,605.3-188,605.2-188.5,605.1z M-190.6,595.7c-1.1,0-1.5,0.4-1.5,1.6c0,1.3,0.5,1.6,1.5,1.6
				c1.1,0,1.5-0.4,1.5-1.6C-189.1,596-189.6,595.7-190.6,595.7z"/>
			<path d="M-176.4,604.9v-7.8c0-0.5-0.2-0.7-0.8-0.7c-0.7,0-1.7,0.2-2.5,0.6v7.9h-3.2v-11.2h3.2v0.9h0.2c1.6-0.9,2.6-1.1,3.5-1.1
				c1.7,0,2.7,0.8,2.7,3v8.5H-176.4z"/>
			<path d="M-168.6,605.1c-1.2,0-1.9-0.7-1.9-1.9c0-1.2,0.8-1.8,2-1.8c1.1,0,2,0.6,2,1.8C-166.6,604.4-167.3,605.1-168.6,605.1z"/>
		</g>
	</g>
</g>
</svg>
