<?xml version="1.0" encoding="utf-8"?>
<!-- Generator: Adobe Illustrator 22.0.1, SVG Export Plug-In . SVG Version: 6.00 Build 0)  -->
<svg version="1.1" id="Capa_1" xmlns="http://www.w3.org/2000/svg" xmlns:xlink="http://www.w3.org/1999/xlink" x="0px" y="0px"
	 viewBox="0 0 92.8 92.8" style="enable-background:new 0 0 92.8 92.8;" xml:space="preserve">
<style type="text/css">
	.st0{fill:#FFFFFF;}
</style>
<path class="st0" d="M89.8,1.8H3c-1.7,0-3,0.7-3,1.5v6.7c0,0.8,1.3,1.5,3,1.5h86.8c1.7,0,3-0.7,3-1.5V3.2
	C92.8,2.4,91.5,1.8,89.8,1.8z"/>
<path class="st0" d="M89.8,38.9H3c-1.7,0-3,0.7-3,1.5v6.7c0,0.8,1.3,1.5,3,1.5h86.8c1.7,0,3-0.7,3-1.5v-6.7
	C92.8,39.6,91.5,38.9,89.8,38.9z"/>
<path class="st0" d="M89.8,78H3c-1.7,0-3,0.7-3,1.5v6.7c0,0.8,1.3,1.5,3,1.5h86.8c1.7,0,3-0.7,3-1.5v-6.7C92.8,78.7,91.5,78,89.8,78
	z"/>
</svg>
